<?xml version="1.0" standalone="no"?>
<!DOCTYPE svg PUBLIC "-//W3C//DTD SVG 20010904//EN"
 "http://www.w3.org/TR/2001/REC-SVG-20010904/DTD/svg10.dtd">
<svg version="1.0" xmlns="http://www.w3.org/2000/svg"
 width="2000.000000pt" height="2000.000000pt" viewBox="0 0 2000.000000 2000.000000"
 preserveAspectRatio="xMidYMid meet">
<metadata>
Created by potrace 1.11, written by Peter Selinger 2001-2013
</metadata>
<g transform="translate(0.000000,2000.000000) scale(0.100000,-0.100000)"
fill="#000000" stroke="none">
<path d="M9049 19996 c-2 -2 -38 -7 -79 -10 -41 -4 -88 -9 -105 -11 -16 -3
-86 -12 -155 -20 -69 -9 -138 -18 -155 -21 -16 -3 -41 -7 -55 -9 -215 -33
-544 -95 -690 -129 -287 -68 -492 -122 -700 -186 -74 -23 -144 -44 -155 -47
-46 -13 -403 -137 -440 -153 -11 -5 -78 -31 -150 -58 -646 -247 -1374 -631
-1975 -1040 -94 -65 -321 -226 -350 -249 -8 -6 -86 -67 -174 -134 -132 -103
-408 -328 -426 -348 -3 -3 -25 -24 -50 -46 -259 -227 -623 -588 -840 -831
-130 -145 -315 -366 -390 -464 -19 -25 -37 -47 -40 -50 -3 -3 -53 -68 -111
-145 -189 -251 -367 -511 -529 -775 -46 -74 -91 -147 -102 -162 -10 -15 -18
-30 -18 -33 0 -3 -18 -35 -40 -71 -22 -36 -40 -68 -40 -70 0 -2 -13 -25 -28
-51 -153 -261 -456 -900 -561 -1183 -8 -19 -19 -48 -26 -65 -51 -117 -267
-763 -290 -865 -2 -8 -19 -71 -38 -140 -40 -145 -77 -294 -107 -434 -12 -54
-23 -106 -25 -115 -25 -113 -74 -380 -90 -486 -3 -22 -10 -65 -15 -95 -5 -30
-11 -77 -15 -105 -3 -27 -8 -63 -11 -80 -3 -16 -7 -46 -9 -65 -2 -19 -6 -62
-10 -95 -3 -33 -8 -73 -10 -90 -2 -16 -6 -61 -10 -100 -3 -38 -8 -90 -11 -115
-15 -154 -19 -307 -19 -835 0 -515 4 -702 19 -845 3 -19 7 -66 10 -105 4 -38
8 -86 11 -105 2 -19 7 -62 10 -94 3 -33 7 -71 10 -85 2 -14 7 -48 10 -76 9
-78 51 -363 61 -409 3 -11 7 -39 10 -61 3 -22 9 -53 14 -70 5 -16 12 -50 15
-75 8 -58 25 -139 60 -290 2 -8 13 -55 24 -105 31 -136 85 -339 135 -512 128
-437 315 -937 504 -1349 62 -135 232 -478 272 -549 13 -22 35 -63 51 -91 15
-29 51 -93 80 -144 28 -51 47 -95 42 -99 -81 -56 -109 -76 -111 -83 -2 -4 -8
-8 -13 -8 -5 0 -17 -7 -26 -15 -10 -8 -49 -39 -88 -70 -289 -233 -497 -535
-531 -770 -8 -58 -8 -158 0 -197 3 -16 8 -40 11 -55 7 -38 23 -73 67 -151 74
-132 223 -260 408 -351 47 -23 92 -43 100 -45 8 -2 32 -10 52 -20 21 -9 45
-17 55 -19 10 -1 23 -6 29 -9 10 -7 201 -52 262 -63 92 -15 185 -27 238 -30
22 -1 46 -5 52 -9 6 -3 13 -2 16 3 3 4 23 5 43 1 71 -12 519 -1 606 16 10 2
45 6 76 10 31 3 58 8 61 9 3 2 23 6 45 9 l40 6 237 -232 c255 -251 309 -301
523 -484 181 -155 355 -295 530 -424 77 -57 157 -116 178 -133 52 -39 473
-318 589 -389 416 -254 855 -479 1343 -687 11 -5 37 -16 57 -25 160 -70 848
-316 929 -331 11 -2 57 -15 102 -29 181 -54 493 -133 677 -171 8 -2 35 -8 60
-14 25 -5 61 -13 80 -16 19 -3 67 -12 105 -20 90 -18 295 -52 360 -60 28 -4
57 -8 65 -10 8 -2 38 -7 65 -10 28 -3 61 -8 75 -10 14 -3 52 -7 85 -10 33 -4
72 -8 86 -11 14 -2 52 -6 85 -9 32 -4 73 -8 89 -10 132 -16 335 -20 965 -20
636 0 848 4 965 20 17 2 54 7 83 10 28 3 76 7 105 10 28 3 66 8 82 10 17 2 53
7 80 10 95 12 259 37 420 65 840 144 1772 438 2533 801 68 33 128 59 133 59 5
0 9 5 9 10 0 6 5 10 12 10 13 0 241 115 319 161 28 16 52 29 54 29 7 0 265
147 335 190 8 5 65 39 125 76 358 217 806 539 1156 831 92 77 173 146 181 154
8 8 41 36 72 63 32 27 97 87 146 133 91 86 151 134 183 146 32 12 143 95 192
144 61 61 114 133 154 208 37 70 42 76 226 279 40 45 112 130 203 241 17 20
86 106 109 135 111 139 333 443 438 599 17 25 48 57 70 73 113 82 161 122 259
221 104 104 216 250 287 373 34 59 99 191 99 201 0 4 6 20 14 34 10 21 22 52
31 89 0 3 6 21 13 41 7 20 15 47 17 60 3 13 9 47 15 74 9 46 23 189 21 225 -1
8 -1 29 -1 46 -1 18 38 122 88 240 49 115 115 279 147 364 32 85 63 169 70
185 11 25 83 239 92 270 1 6 30 98 63 205 118 381 249 952 305 1325 4 22 13
81 20 130 8 50 17 116 20 148 4 32 8 66 10 75 16 88 20 310 20 1232 0 936 -3
1141 -19 1225 -2 11 -7 47 -11 80 -11 102 -15 127 -30 215 -7 47 -16 101 -19
120 -3 19 -8 46 -10 60 -3 14 -7 42 -10 62 -3 21 -10 57 -15 80 -6 24 -12 54
-14 68 -3 14 -8 43 -12 65 -4 22 -9 49 -11 60 -16 95 -136 579 -190 763 -108
371 -278 847 -413 1156 -309 704 -663 1329 -1070 1890 -47 65 -93 128 -101
140 -45 64 -382 488 -410 516 -3 3 -34 39 -70 80 -71 82 -121 138 -220 245
-82 89 -446 452 -525 525 -194 177 -299 270 -341 303 -16 12 -42 34 -59 49
-36 31 -289 234 -329 263 -15 11 -44 33 -64 49 -191 149 -810 566 -841 566 -6
0 -11 5 -11 10 0 6 -6 10 -13 10 -7 0 -31 13 -53 30 -21 16 -42 30 -46 30 -4
0 -37 18 -73 40 -36 22 -67 40 -70 40 -2 0 -27 13 -54 30 -266 156 -806 411
-1216 573 -214 85 -719 258 -823 282 -9 3 -66 18 -127 35 -323 90 -758 188
-990 223 -16 3 -57 10 -90 15 -33 6 -80 14 -105 17 -53 7 -95 14 -130 20 -14
2 -50 7 -80 10 -30 3 -66 8 -80 10 -14 2 -54 7 -90 11 -36 3 -74 9 -85 12 -22
7 -2019 15 -2026 8z m-8287 -16144 c13 -15 18 -102 7 -102 -4 0 -12 19 -17 43
-5 23 -11 47 -12 52 -1 6 -1 21 0 35 2 21 3 22 7 5 3 -11 10 -26 15 -33z"/>
</g>
</svg>
